<?xml version="1.0" standalone="no"?>
<!DOCTYPE svg PUBLIC "-//W3C//DTD SVG 20010904//EN"
 "http://www.w3.org/TR/2001/REC-SVG-20010904/DTD/svg10.dtd">
<svg version="1.0" xmlns="http://www.w3.org/2000/svg"
 width="366.000000pt" height="366.000000pt" viewBox="0 0 366.000000 366.000000"
 preserveAspectRatio="xMidYMid meet">
<metadata>
Created by potrace 1.16, written by Peter Selinger 2001-2019
</metadata>
<g transform="translate(0.000000,366.000000) scale(0.100000,-0.100000)"
fill="#000000" stroke="none">
<path d="M1535 3640 c-585 -96 -1079 -458 -1345 -987 -140 -279 -196 -539
-187 -870 7 -308 55 -502 187 -768 90 -181 170 -298 296 -433 292 -314 652
-502 1082 -567 132 -20 392 -20 524 0 597 90 1091 441 1363 967 145 280 205
530 205 848 0 487 -173 923 -503 1267 -264 275 -616 467 -982 534 -165 31
-479 35 -640 9z m1003 -1168 l2 -212 39 0 c21 0 43 -6 49 -13 8 -9 -15 -96
-87 -327 -54 -173 -115 -368 -135 -432 l-37 -118 -544 0 -543 0 -26 78 c-25
78 -189 603 -246 790 -20 68 -41 114 -60 135 -42 49 -143 96 -220 105 -56 6
-65 10 -65 27 0 17 9 21 65 27 36 3 85 14 109 22 50 18 104 21 132 6 29 -16
46 -58 54 -137 4 -40 13 -92 20 -115 l12 -43 216 -3 216 -2 3 137 3 138 70 6
c39 3 64 6 58 7 -7 1 -13 9 -13 18 0 10 6 14 14 11 11 -5 12 0 3 24 -9 24 -9
35 4 57 16 29 26 30 154 18 28 -2 55 0 62 6 6 5 29 8 49 6 50 -4 75 -42 57
-87 -9 -24 -8 -29 4 -24 16 6 14 -17 -2 -29 -5 -4 17 -8 50 -8 34 0 66 -5 73
-12 8 -8 12 -54 12 -140 0 -77 4 -128 10 -128 6 0 11 82 12 213 l3 212 180 5
c99 3 194 3 210 0 l30 -6 3 -212z m-103 -1193 c55 -15 119 -83 134 -142 41
-166 -130 -301 -287 -226 -49 24 -96 87 -106 144 -9 45 9 111 40 153 l25 32
-397 0 c-377 0 -396 -1 -382 -17 47 -54 62 -149 35 -216 -19 -45 -89 -105
-132 -113 -101 -19 -191 24 -231 109 -38 83 -27 153 34 219 65 68 53 67 672
68 374 0 568 -4 595 -11z"/>
<path d="M2160 2545 l0 -95 70 0 70 0 0 95 0 95 -70 0 -70 0 0 -95z"/>
<path d="M2350 2545 l0 -95 70 0 70 0 0 95 0 95 -70 0 -70 0 0 -95z"/>
<path d="M1546 2483 c-3 -3 -6 -55 -6 -115 l0 -108 110 0 110 0 0 64 c0 73
-18 105 -78 135 -39 19 -125 35 -136 24z"/>
<path d="M1954 2481 c-43 -7 -94 -39 -119 -74 -9 -14 -15 -44 -15 -84 l0 -63
110 0 111 0 -3 113 c-3 126 -1 122 -84 108z"/>
<path d="M2160 2330 l0 -70 70 0 70 0 0 70 0 70 -70 0 -70 0 0 -70z"/>
<path d="M2350 2330 l0 -70 70 0 70 0 0 70 0 70 -70 0 -70 0 0 -70z"/>
<path d="M1080 2197 c0 -6 54 -183 119 -392 l119 -380 505 -3 505 -2 21 62
c57 176 221 708 221 717 0 7 -232 11 -745 11 -589 0 -745 -3 -745 -13z m1323
-119 c13 -38 12 -38 -578 -38 -389 0 -576 3 -580 10 -4 6 -4 17 -1 25 5 13 87
15 580 15 450 0 575 -3 579 -12z m-432 -161 c70 -47 65 -151 -13 -249 -37 -47
-124 -118 -144 -118 -24 0 -135 120 -160 173 -15 32 -24 70 -24 101 0 42 5 53
35 83 l35 35 123 -4 c95 -3 128 -7 148 -21z"/>
<path d="M1727 1729 c-4 -16 7 -34 40 -70 25 -27 49 -49 53 -49 3 0 30 23 58
52 41 41 49 55 42 69 -8 15 -24 18 -99 18 -82 0 -89 -1 -94 -20z"/>
<path d="M1267 1226 c-70 -25 -97 -66 -97 -145 0 -144 194 -194 270 -69 70
115 -47 259 -173 214z"/>
<path d="M2327 1226 c-74 -27 -102 -71 -95 -153 16 -185 288 -170 288 16 0
101 -98 171 -193 137z"/>
</g>
</svg>
