<svg xmlns="http://www.w3.org/2000/svg" viewBox="0 0 212.44 147.17"><defs><style>.cls-1{isolation:isolate;}.cls-2{fill:#beb7b7;}.cls-3{mix-blend-mode:overlay;}.cls-4{fill:#192208;}</style></defs><title>Carrito_IMake</title><g class="cls-1"><g id="Capa_1" data-name="Capa 1"><path d="M280,205.64,241.7,217.75c-2.59.69-4.76,1.2-4.72,3.77,1.23,2.24,3.37,1.62,6,.94l38.81-10.27C284.34,211.5,282.61,205,280,205.64Z" transform="translate(-210.08 -146.66)"/><path d="M287.51,218.48a5.72,5.72,0,0,0-6.9-4.08l-.11-.06L241.69,224.6a5.68,5.68,0,0,1-6.45-2.78,5.92,5.92,0,0,0,.17,1.38l1.42,5.36,1.46-.38.24.92-1.45.38.57,2.19,5.59,21.13a5.72,5.72,0,0,0,7,4.06L289,246.59a5.71,5.71,0,0,0,4.07-7l-.62-2.33-1.48.39a5.76,5.76,0,0,1,.07,1.37l-.95-.07a4.71,4.71,0,0,0,0-1.06L286,239a8.38,8.38,0,1,1-4.29-16.2l6.44-1.71Zm2.19,22.19.87.38a6.23,6.23,0,0,1-1.13,1.73l-.7-.65A5.28,5.28,0,0,0,289.7,240.67Zm-4.05,3.12.59-.16a5.32,5.32,0,0,0,1.11-.43l.45.84a6.22,6.22,0,0,1-1.32.51l-.59.16Zm-3.71,1,1.85-.49.25.92-1.85.49ZM247,255l-1.86.49-.24-.92,1.85-.49Zm-6.84-27.31,1.85-.49.24.92-1.85.49ZM250.68,254l-1.85.49-.24-.92,1.85-.49Zm-6.83-27.31,1.85-.49.24.92-1.85.49ZM254.39,253l-1.85.49-.25-.92,1.86-.49Zm-6.84-27.31,1.85-.49.25.92-1.85.49Zm10.55,26.33-1.86.49-.24-.92,1.85-.49Zm-6.84-27.31,1.85-.49.24.92-1.85.49Zm10.54,26.33-1.85.49-.25-.92,1.86-.49ZM255,223.77l1.86-.49.24.92-1.85.49Zm10.55,26.33-1.86.49-.24-.92,1.85-.49Zm-6.84-27.31,1.86-.49.24.92-1.86.49Zm10.54,26.33-1.85.49-.24-.92,1.85-.49Zm-6.83-27.31,1.85-.49.24.92-1.85.49Zm10.54,26.33-1.85.49-.25-.92,1.86-.49Zm-6.84-27.31,1.86-.5.24.93-1.85.49Zm10.55,26.33-1.86.49-.24-.92,1.85-.49Zm-6.84-27.32,1.85-.49.25.92-1.86.49Zm10.3,25.42.24.92-1.85.49-.24-.92Zm-4.5-26-1.85.49-.24-.92,1.85-.49Zm3.71-1-1.85.49-.25-.92,1.86-.49Zm3.46.13a5,5,0,0,0-1.71-.36l0-1a6.13,6.13,0,0,1,2,.42Zm2.63,2.23a5.51,5.51,0,0,0-1.12-1.34l.61-.72a6,6,0,0,1,1.33,1.59Z" transform="translate(-210.08 -146.66)"/><path d="M277.55,232.56a6.59,6.59,0,0,0,8,4.66l6.44-1.7-3.35-12.68-6.44,1.7A6.53,6.53,0,0,0,277.55,232.56Zm3.53-5.18.6.74a3.47,3.47,0,0,0-1,1.33l-.87-.39A4.46,4.46,0,0,1,281.08,227.38Zm-1,5.79a4.13,4.13,0,0,1-.48-1.15,4.19,4.19,0,0,1-.15-.86l.95-.07a4.16,4.16,0,0,0,.12.69,3.56,3.56,0,0,0,.37.9Zm3.48,2.19a4.45,4.45,0,0,1-2-.67l.5-.81a3.58,3.58,0,0,0,1.58.53Zm3.39-.62-1.84.49-.25-.92,1.85-.49Zm-.27-9.26,1.84-.48.25.92-1.84.49Zm1.88,7.85,1.84-.48.24.92-1.84.48Zm-4.27,0a2.45,2.45,0,1,1,1.74-3A2.44,2.44,0,0,1,284.27,233.31Zm-1.3-6.85,1.84-.49.24.93-1.84.48Z" transform="translate(-210.08 -146.66)"/><path class="cls-2" d="M275.34,166.11l-20.76-7.7-6.17,1.48h0A8.8,8.8,0,1,1,231.29,164h0l-6.17,1.47-15,16.24,14.49,9.19,2.87-4.82L231.05,218l42-10-11.22-30.13,4.74,3Z" transform="translate(-210.08 -146.66)"/><path class="cls-2" d="M254.73,166.27l-25.47,6.08L227.74,166,239.82,162l13.38-2.15Zm-24.58,4.58,23.11-5.51-1-4.06-12.18,1.95-10.92,3.57Z" transform="translate(-210.08 -146.66)"/><path class="cls-2" d="M240.6,162.47l-1.18.29-.54-2.29a3.31,3.31,0,1,1,3-4.05l-1.18.28a2,2,0,1,0-1.47,2.47l.59-.14Z" transform="translate(-210.08 -146.66)"/><path class="cls-2" d="M309.2,220H291.81a.8.8,0,0,1-.81-.8v-6.4a.83.83,0,0,1,.23-.57.81.81,0,0,1,.57-.23h17.39a.8.8,0,0,1,.81.8v6.4a.79.79,0,0,1-.23.56A.8.8,0,0,1,309.2,220Z" transform="translate(-210.08 -146.66)"/><path class="cls-2" d="M330.2,220H312.81a.81.81,0,0,1-.81-.81V212.8a.8.8,0,0,1,.81-.8h17.38a.8.8,0,0,1,.81.8v6.4a.79.79,0,0,1-.23.56A.8.8,0,0,1,330.2,220Z" transform="translate(-210.08 -146.66)"/><path class="cls-2" d="M309.2,247H292.8a.84.84,0,0,1-.8-.87V222.86a.89.89,0,0,1,.23-.61.77.77,0,0,1,.56-.25H309.2a.84.84,0,0,1,.8.86v23.28a.89.89,0,0,1-.23.61A.77.77,0,0,1,309.2,247Z" transform="translate(-210.08 -146.66)"/><path class="cls-2" d="M329.21,247H312.8a.84.84,0,0,1-.8-.87V222.86a.84.84,0,0,1,.8-.86h16.4a.84.84,0,0,1,.8.86v23.28a.89.89,0,0,1-.23.61A.77.77,0,0,1,329.21,247Z" transform="translate(-210.08 -146.66)"/><path class="cls-2" d="M300.83,209.07A28.07,28.07,0,0,0,304,212h13.86a26.39,26.39,0,0,0,3.16-2.93c3.8-4.09,6.61-9.33,4.34-11.78a2.83,2.83,0,0,0-2.15-.89c-2.23,0-5.59,2.13-8.77,5.57a26.75,26.75,0,0,0-3.51,4.67,26.91,26.91,0,0,0-3.51-4.67c-3.18-3.44-6.54-5.57-8.76-5.57a2.8,2.8,0,0,0-2.15.89c-.79.85-1.42,2.53.08,5.72A24.72,24.72,0,0,0,300.83,209.07ZM316.76,204c2.59-2.79,4.95-4.2,6.08-4.47-.24,1.08-1.44,3.61-4.16,6.54-2.54,2.75-4.87,4.16-6.06,4.46C312.89,209.3,314.2,206.77,316.76,204Zm-11.68,0c2.72,2.94,3.91,5.47,4.16,6.55-1.13-.27-3.49-1.69-6.08-4.48a21.5,21.5,0,0,1-3.64-5.14,6.35,6.35,0,0,1-.5-1.4C300.16,199.81,302.51,201.23,305.08,204Z" transform="translate(-210.08 -146.66)"/><path class="cls-2" d="M314.53,212a4.9,4.9,0,0,0,.7-2.53,4.33,4.33,0,1,0-8.63,0,4.9,4.9,0,0,0,.7,2.53Z" transform="translate(-210.08 -146.66)"/><path d="M281.11,164.8l-20.76-7.7-6.17,1.48h0a8.8,8.8,0,1,1-17.12,4.09h0l-6.17,1.46-15,16.24,14.49,9.19,2.87-4.82,3.61,31.95,42-10-11.22-30.13,4.74,3Z" transform="translate(-210.08 -146.66)"/><path d="M260.5,165,235,171l-1.52-6.39,12.08-3.94L259,158.57Zm-24.58,4.59L259,164l-1-4.05-12.18,1.94L235,165.49Z" transform="translate(-210.08 -146.66)"/><path d="M246.37,161.17l-1.18.28-.54-2.29a3.32,3.32,0,0,1-.94-6.52,3.26,3.26,0,0,1,3.9,2.47l-1.18.28a2,2,0,1,0-1.47,2.47l.59-.14Z" transform="translate(-210.08 -146.66)"/><path d="M313.2,220H295.81a.8.8,0,0,1-.81-.8v-6.4a.83.83,0,0,1,.23-.57.81.81,0,0,1,.57-.23h17.39a.8.8,0,0,1,.81.8v6.4a.79.79,0,0,1-.23.56A.8.8,0,0,1,313.2,220Z" transform="translate(-210.08 -146.66)"/><path d="M333.2,220H315.81a.81.81,0,0,1-.81-.81V212.8a.8.8,0,0,1,.81-.8h17.38a.8.8,0,0,1,.81.8v6.4a.79.79,0,0,1-.23.56A.8.8,0,0,1,333.2,220Z" transform="translate(-210.08 -146.66)"/><path d="M313.2,248H296.8a.84.84,0,0,1-.8-.87V223.86a.89.89,0,0,1,.23-.61.77.77,0,0,1,.56-.25H313.2a.84.84,0,0,1,.8.86v23.28a.89.89,0,0,1-.23.61A.77.77,0,0,1,313.2,248Z" transform="translate(-210.08 -146.66)"/><path d="M333.21,248H316.8a.84.84,0,0,1-.8-.87V223.86a.84.84,0,0,1,.8-.86h16.4a.84.84,0,0,1,.8.86v23.28a.89.89,0,0,1-.23.61A.77.77,0,0,1,333.21,248Z" transform="translate(-210.08 -146.66)"/><path d="M304.42,209.07a28.07,28.07,0,0,0,3.16,2.93h13.87a28,28,0,0,0,3.16-2.93c3.79-4.09,6.6-9.33,4.33-11.78a2.83,2.83,0,0,0-2.15-.89c-2.23,0-5.59,2.13-8.77,5.57a26.17,26.17,0,0,0-3.5,4.67A26.48,26.48,0,0,0,311,202c-3.18-3.44-6.54-5.57-8.76-5.57a2.8,2.8,0,0,0-2.15.89c-.79.85-1.42,2.53.08,5.72A24.72,24.72,0,0,0,304.42,209.07Zm15.93-4.57c2.59-2.79,4.95-4.21,6.08-4.48-.24,1.08-1.44,3.62-4.16,6.55-2.54,2.74-4.86,4.16-6.06,4.46C316.48,209.79,317.79,207.27,320.35,204.5Zm-11.68,0a17.17,17.17,0,0,1,4.16,6.55c-1.13-.27-3.49-1.69-6.08-4.48a21.34,21.34,0,0,1-3.64-5.15,6.32,6.32,0,0,1-.5-1.39C303.75,200.31,306.1,201.73,308.67,204.5Z" transform="translate(-210.08 -146.66)"/><path d="M318.12,212a4.9,4.9,0,0,0,.7-2.53,4.33,4.33,0,1,0-8.63,0,4.9,4.9,0,0,0,.7,2.53Z" transform="translate(-210.08 -146.66)"/><path class="cls-2" d="M292.24,150.28,275,174.19l47.85,34.41,17.2-23.9Zm33.38,49.6a6.24,6.24,0,0,0-8.74,1.22l-32.81-23.6a6.24,6.24,0,0,0-1.63-8.67l7.07-9.82a6.24,6.24,0,0,0,8.73-1.22l32.82,23.6a6.24,6.24,0,0,0,1.62,8.67Z" transform="translate(-210.08 -146.66)"/><path class="cls-2" d="M306.56,173.5a2,2,0,0,0-.19.22c-.77,1.08-.33,2.78,1,4.11l3.24-4.5C309,172.59,307.4,172.63,306.56,173.5Z" transform="translate(-210.08 -146.66)"/><path class="cls-2" d="M304.56,185.56c1.68.8,3.42.68,4.2-.4h0c.77-1.08.32-2.77-1-4.1Z" transform="translate(-210.08 -146.66)"/><path class="cls-2" d="M314.65,169.59c-4.85-3.49-12-1.92-15.88,3.53s-3.15,12.69,1.71,16.18,12,1.91,15.88-3.53S319.51,173.08,314.65,169.59Zm-4.07,16.89c-1.44,2-4.55,2.31-7.29.84l-.16.22a1.13,1.13,0,0,1-1.83-1.31l.16-.22c-2.26-2.14-3-5.18-1.52-7.19a1.12,1.12,0,0,1,1.82,1.31c-.77,1.08-.33,2.77,1,4.11l3.34-4.64c-2.27-2.13-3-5.18-1.53-7.19a4.11,4.11,0,0,1,.7-.74c1.61-1.32,4.25-1.36,6.61-.1l.16-.22a1.12,1.12,0,0,1,1.82,1.31l-.16.22c2.26,2.13,3,5.18,1.52,7.19a1.12,1.12,0,0,1-1.82-1.31c.77-1.08.33-2.77-1-4.11l-3.34,4.64C311.32,181.42,312,184.47,310.58,186.48Z" transform="translate(-210.08 -146.66)"/><path class="cls-2" d="M326.16,206.81l18.08-10-4.95-8.23-5.08,7.06a6.34,6.34,0,0,0,.91,3l-5.06,2.8Z" transform="translate(-210.08 -146.66)"/><polygon class="cls-2" points="104.73 58.76 108.2 64.53 110.76 63.1 104.73 58.76"/><path class="cls-2" d="M303.29,155.91l4.62-2.56a6.52,6.52,0,0,0,8.64,2.45l10.23,17,5.36,3.85-18.05-30-13.36,7.41Z" transform="translate(-210.08 -146.66)"/><path d="M289.06,153.25l-17.19,23.9,47.84,34.42,17.2-23.91Zm33.39,49.59a6.25,6.25,0,0,0-8.74,1.22l-32.82-23.6a6.24,6.24,0,0,0-1.62-8.67l7.06-9.82a6.24,6.24,0,0,0,8.74-1.22l32.81,23.6a6.25,6.25,0,0,0,1.63,8.67Z" transform="translate(-210.08 -146.66)"/><path d="M303.38,176.46l-.19.23c-.77,1.07-.32,2.77,1,4.11l3.24-4.5C305.85,175.55,304.23,175.59,303.38,176.46Z" transform="translate(-210.08 -146.66)"/><path d="M301.38,188.52c1.68.8,3.43.68,4.2-.39h0c.76-1.08.31-2.77-1-4.1Z" transform="translate(-210.08 -146.66)"/><path d="M311.48,172.55c-4.86-3.49-12-1.91-15.89,3.53s-3.14,12.69,1.71,16.18,12,1.92,15.89-3.53S316.33,176.05,311.48,172.55Zm-4.07,16.89c-1.45,2-4.56,2.31-7.3.84l-.16.23a1.13,1.13,0,0,1-1.83-1.32l.16-.22c-2.26-2.13-3-5.18-1.52-7.19a1.13,1.13,0,0,1,1.83,1.31c-.78,1.08-.33,2.78,1,4.11l3.34-4.64c-2.26-2.13-3-5.18-1.52-7.19a3.74,3.74,0,0,1,.69-.74c1.62-1.31,4.25-1.36,6.61-.1l.16-.22a1.13,1.13,0,0,1,1.83,1.31l-.16.22c2.26,2.14,3,5.18,1.52,7.19a1.13,1.13,0,0,1-1.83-1.31c.78-1.08.33-2.77-1-4.11l-3.34,4.64C308.15,184.38,308.85,187.43,307.41,189.44Z" transform="translate(-210.08 -146.66)"/><path d="M323,209.77l18.09-10-5-8.23L331,198.57a6.42,6.42,0,0,0,.91,3l-5.06,2.81Z" transform="translate(-210.08 -146.66)"/><polygon points="101.56 61.73 105.02 67.49 107.59 66.06 101.56 61.73"/><path d="M300.11,158.87l4.63-2.56a6.51,6.51,0,0,0,8.63,2.45l10.23,17,5.37,3.86-18.05-30L297.55,157Z" transform="translate(-210.08 -146.66)"/><g class="cls-3"><path d="M328,261l-88.77-3.45a3.91,3.91,0,0,1-3.55-2.84l-20-65.8a4.31,4.31,0,0,1,.6-3.74,3.81,3.81,0,0,1,3.24-1.63l127.87,5a4.11,4.11,0,0,1-.29,8.21l-122.33-4.76,17.5,57.48,83.77,3.26,43.39-74.91a3.85,3.85,0,0,1,3.45-2l45.88,1.79a4.11,4.11,0,0,1-.28,8.21l-43.61-1.7L331.49,259A3.82,3.82,0,0,1,328,261Z" transform="translate(-210.08 -146.66)"/><path d="M407.46,209.5l-33.63-1.31a4,4,0,0,1-3.73-4.25,4,4,0,0,1,4-3.95l33.63,1.3a4,4,0,0,1,3.73,4.26A4,4,0,0,1,407.46,209.5Z" transform="translate(-210.08 -146.66)"/><path d="M394.92,229.2l-33.62-1.31a4.11,4.11,0,0,1,.28-8.2L395.21,221a4,4,0,0,1,3.74,4.25A4,4,0,0,1,394.92,229.2Z" transform="translate(-210.08 -146.66)"/><path d="M256.1,291.72c-7.75-.3-13.82-7.21-13.53-15.4s6.81-14.61,14.56-14.31,13.81,7.21,13.53,15.4S263.84,292,256.1,291.72Zm.74-21.51a6.66,6.66,0,1,0,6.06,6.9A6.53,6.53,0,0,0,256.84,270.21Z" transform="translate(-210.08 -146.66)"/><path d="M310.06,293.82c-7.75-.3-13.82-7.21-13.53-15.4s6.82-14.61,14.56-14.31,13.82,7.21,13.53,15.4S317.8,294.12,310.06,293.82Zm.75-21.51a6.66,6.66,0,1,0,6.05,6.9A6.52,6.52,0,0,0,310.81,272.31Z" transform="translate(-210.08 -146.66)"/></g><path class="cls-4" d="M331.09,256h-89a3.89,3.89,0,0,1-3.64-2.7l-22.24-64.81a4.26,4.26,0,0,1,.46-3.74,3.82,3.82,0,0,1,3.18-1.75h128a4,4,0,0,1,0,8H225.28l19.57,57h84l40.42-75.93A3.82,3.82,0,0,1,372.6,170h46.13a4,4,0,0,1,0,8H374.87l-40.43,75.93A3.81,3.81,0,0,1,331.09,256Z" transform="translate(-210.08 -146.66)"/><path class="cls-4" d="M408.05,202H375.27a4,4,0,0,1,0-8h32.78a4,4,0,0,1,0,8Z" transform="translate(-210.08 -146.66)"/><path class="cls-4" d="M396.21,222H363.43a4,4,0,0,1,0-8h32.78a4,4,0,0,1,0,8Z" transform="translate(-210.08 -146.66)"/><path class="cls-4" d="M260.08,290.07c-7.75,0-14-6.67-14-14.87s6.3-14.86,14-14.86,14.06,6.67,14.06,14.86S267.83,290.07,260.08,290.07Zm0-21.52a6.67,6.67,0,1,0,6.3,6.65A6.48,6.48,0,0,0,260.08,268.55Z" transform="translate(-210.08 -146.66)"/><path class="cls-4" d="M314.08,290.07c-7.75,0-14.05-6.67-14.05-14.87s6.3-14.86,14.05-14.86,14.06,6.67,14.06,14.86S321.83,290.07,314.08,290.07Zm0-21.52a6.67,6.67,0,1,0,6.29,6.65A6.48,6.48,0,0,0,314.08,268.55Z" transform="translate(-210.08 -146.66)"/></g></g></svg>
