<svg xmlns="http://www.w3.org/2000/svg" viewBox="0 0 212.49 147.17"><defs><style>.cls-1{isolation:isolate;}.cls-2{fill:#beb7b7;}.cls-3{mix-blend-mode:overlay;}.cls-4{fill:#fff;}</style></defs><title>Carrito_iMake_V2</title><g class="cls-1"><g id="Capa_1" data-name="Capa 1"><path d="M252.68,134.88,214.37,147c-2.6.69-4.76,1.21-4.72,3.77,1.23,2.25,3.37,1.63,6,.94l38.81-10.27C257,140.75,255.28,134.2,252.68,134.88Z" transform="translate(-182.74 -75.9)"/><path d="M260.17,147.72a5.7,5.7,0,0,0-6.89-4.07l-.11-.07-38.81,10.27a5.71,5.71,0,0,1-6.45-2.78,5.41,5.41,0,0,0,.17,1.37l1.42,5.37,1.45-.39.25.92-1.46.39.58,2.18L215.91,182a5.72,5.72,0,0,0,7,4.06l38.8-10.26a5.72,5.72,0,0,0,4.06-7l-.61-2.33-1.48.39a6.39,6.39,0,0,1,.07,1.38l-.95-.08a4.62,4.62,0,0,0,0-1.05l-4,1.07A8.38,8.38,0,0,1,254.42,152l6.44-1.7Zm2.2,22.19.87.38A6.26,6.26,0,0,1,262.1,172l-.69-.65A5.28,5.28,0,0,0,262.37,169.91ZM258.32,173l.59-.16a5.54,5.54,0,0,0,1.11-.43l.45.84a6.22,6.22,0,0,1-1.32.51l-.59.16Zm-3.71,1,1.85-.49.25.92-1.85.49Zm-35,10.24-1.85.49-.24-.92,1.85-.49Zm-6.83-27.32,1.85-.49.24.92-1.85.49Zm10.54,26.33-1.85.49-.25-.92,1.86-.49ZM216.51,156l1.86-.49.24.92-1.85.49Zm10.55,26.33-1.86.49-.24-.92,1.85-.49ZM220.22,155l1.85-.49.25.92-1.86.49Zm10.54,26.33-1.85.49-.24-.92,1.85-.49ZM223.93,154l1.85-.49.24.92-1.85.49Zm10.54,26.33-1.85.49-.25-.92,1.85-.49ZM227.63,153l1.86-.49.24.92-1.85.49Zm10.55,26.33-1.86.49-.24-.92,1.85-.49ZM231.34,152l1.85-.49.25.92-1.86.49Zm10.54,26.33-1.85.49-.25-.92,1.86-.49Zm-6.83-27.31,1.85-.49.24.92-1.85.49Zm10.54,26.33-1.86.49-.24-.92,1.86-.49Zm-6.84-27.31,1.85-.49.25.92L239,151ZM249.3,176.4l-1.86.49-.24-.92,1.85-.49Zm-6.84-27.31,1.85-.49.24.92-1.85.49Zm10.3,25.41.24.92-1.85.49-.24-.92Zm-4.5-26-1.85.49-.25-.92,1.86-.49Zm3.71-1-1.86.49-.24-.92,1.85-.49Zm3.46.12a5,5,0,0,0-1.71-.36l0-.95a6.39,6.39,0,0,1,2,.42Zm2.62,2.24a5,5,0,0,0-1.12-1.34l.62-.73a6.33,6.33,0,0,1,1.33,1.59Z" transform="translate(-182.74 -75.9)"/><path d="M250.22,161.8a6.61,6.61,0,0,0,8,4.67l6.44-1.71-3.35-12.68-6.45,1.7A6.54,6.54,0,0,0,250.22,161.8Zm3.53-5.17.6.73a3.47,3.47,0,0,0-1,1.33l-.88-.39A4.48,4.48,0,0,1,253.75,156.63Zm-1,5.78a4.76,4.76,0,0,1-.48-1.14,5.25,5.25,0,0,1-.14-.87l1-.06a4.18,4.18,0,0,0,.11.68,4.27,4.27,0,0,0,.38.91Zm3.48,2.19a4.45,4.45,0,0,1-2-.67l.5-.81a3.59,3.59,0,0,0,1.58.54Zm3.4-.62-1.84.49-.25-.92,1.84-.49Zm-.27-9.25,1.84-.49.24.92-1.84.49Zm1.88,7.84,1.84-.48.24.92-1.84.48Zm-4.27,0a2.45,2.45,0,1,1,1.74-3A2.46,2.46,0,0,1,256.94,162.56Zm-1.3-6.86,1.84-.48.24.92-1.84.49Z" transform="translate(-182.74 -75.9)"/><path class="cls-2" d="M248,95.35l-20.76-7.7-6.18,1.48h0A8.8,8.8,0,1,1,204,93.23h0l-6.17,1.46-15,16.24,14.5,9.19,2.87-4.82,3.61,32,42-10-11.22-30.13,4.74,3Z" transform="translate(-182.74 -75.9)"/><path class="cls-2" d="M227.4,95.51l-25.47,6.08L200.4,95.2l12.09-3.94,13.38-2.14Zm-24.58,4.59,23.1-5.52-1-4-12.18,1.94L201.85,96Z" transform="translate(-182.74 -75.9)"/><path class="cls-2" d="M213.27,91.72l-1.18.28-.54-2.29a3.32,3.32,0,0,1-.94-6.52,3.26,3.26,0,0,1,3.9,2.47l-1.18.28a2,2,0,1,0-1.47,2.47l.59-.14Z" transform="translate(-182.74 -75.9)"/><path class="cls-2" d="M282,149.24H265a.83.83,0,0,1-.79-.85v-6.77a.88.88,0,0,1,.23-.6.77.77,0,0,1,.56-.25h17a.82.82,0,0,1,.79.85v6.77a.86.86,0,0,1-.23.6A.77.77,0,0,1,282,149.24Z" transform="translate(-182.74 -75.9)"/><path class="cls-2" d="M302.57,149.25h-17a.82.82,0,0,1-.79-.85v-6.77a.82.82,0,0,1,.79-.85h17a.83.83,0,0,1,.79.85v6.78a.88.88,0,0,1-.23.6A.77.77,0,0,1,302.57,149.25Z" transform="translate(-182.74 -75.9)"/><path class="cls-2" d="M282,176.42h-16.2a.82.82,0,0,1-.79-.84V152.66a.88.88,0,0,1,.23-.6.76.76,0,0,1,.55-.25H282a.82.82,0,0,1,.79.85v22.91a.88.88,0,0,1-.23.6A.77.77,0,0,1,282,176.42Z" transform="translate(-182.74 -75.9)"/><path class="cls-2" d="M301.78,176.42h-16.2a.82.82,0,0,1-.79-.85V152.66a.82.82,0,0,1,.79-.85h16.2a.82.82,0,0,1,.79.85v22.91a.86.86,0,0,1-.23.6A.77.77,0,0,1,301.78,176.42Z" transform="translate(-182.74 -75.9)"/><path class="cls-2" d="M273.5,137.83a27.24,27.24,0,0,0,3.16,2.93h13.86a27.17,27.17,0,0,0,3.16-2.93c3.8-4.09,6.61-9.32,4.34-11.78a2.84,2.84,0,0,0-2.16-.89c-2.22,0-5.58,2.13-8.76,5.57a26.75,26.75,0,0,0-3.51,4.67,26.91,26.91,0,0,0-3.51-4.67c-3.19-3.44-6.54-5.57-8.77-5.57a2.81,2.81,0,0,0-2.15.89c-.78.85-1.41,2.53.08,5.72A24.87,24.87,0,0,0,273.5,137.83Zm15.93-4.58c2.59-2.79,4.95-4.21,6.08-4.48-.25,1.08-1.44,3.61-4.16,6.55-2.54,2.74-4.87,4.15-6.06,4.46C285.55,138.54,286.87,136,289.43,133.25Zm-11.68,0c2.72,2.94,3.91,5.47,4.16,6.55-1.14-.27-3.5-1.69-6.08-4.48a21.21,21.21,0,0,1-3.64-5.14,6.35,6.35,0,0,1-.5-1.4C272.83,129.05,275.18,130.47,277.75,133.24Z" transform="translate(-182.74 -75.9)"/><path class="cls-2" d="M287.2,140.77a4.85,4.85,0,0,0,.7-2.53,4.33,4.33,0,1,0-8.63,0,4.85,4.85,0,0,0,.7,2.53Z" transform="translate(-182.74 -75.9)"/><path d="M253.78,94,233,86.34l-6.18,1.49h0a8.8,8.8,0,1,1-17.12,4.09h0l-6.17,1.47-15.05,16.23,14.5,9.2,2.87-4.83,3.6,32,42-10-11.21-30.13,4.74,3Z" transform="translate(-182.74 -75.9)"/><path d="M233.16,94.21l-25.46,6.08-1.53-6.4L218.26,90l13.38-2.15Zm-24.57,4.58,23.1-5.52-1-4-12.18,2-10.93,3.56Z" transform="translate(-182.74 -75.9)"/><path d="M219,90.41l-1.18.28-.55-2.29a3.3,3.3,0,1,1,3-4.05l-1.18.28a2,2,0,1,0-1.47,2.47l.59-.14Z" transform="translate(-182.74 -75.9)"/><path d="M285.6,149.74h-17a.83.83,0,0,1-.79-.85v-6.77a.86.86,0,0,1,.23-.6.77.77,0,0,1,.56-.25h17a.82.82,0,0,1,.79.85v6.77a.86.86,0,0,1-.23.6A.77.77,0,0,1,285.6,149.74Z" transform="translate(-182.74 -75.9)"/><path d="M306.16,149.74h-17a.82.82,0,0,1-.79-.85v-6.77a.82.82,0,0,1,.79-.85h17a.83.83,0,0,1,.79.85v6.77a.85.85,0,0,1-.23.6A.77.77,0,0,1,306.16,149.74Z" transform="translate(-182.74 -75.9)"/><path d="M285.6,176.92H269.4a.82.82,0,0,1-.79-.85v-22.9a.86.86,0,0,1,.23-.6.77.77,0,0,1,.56-.25h16.2a.82.82,0,0,1,.79.85v22.91a.88.88,0,0,1-.23.6A.77.77,0,0,1,285.6,176.92Z" transform="translate(-182.74 -75.9)"/><path d="M305.38,176.92H289.17a.83.83,0,0,1-.79-.85V153.16a.82.82,0,0,1,.79-.85h16.2a.82.82,0,0,1,.79.85v22.91a.88.88,0,0,1-.23.6A.76.76,0,0,1,305.38,176.92Z" transform="translate(-182.74 -75.9)"/><path d="M277.09,138.33a28.07,28.07,0,0,0,3.16,2.93h13.86a27.24,27.24,0,0,0,3.16-2.93c3.8-4.1,6.61-9.33,4.34-11.78a2.84,2.84,0,0,0-2.16-.89c-2.22,0-5.58,2.13-8.76,5.57a27.07,27.07,0,0,0-3.51,4.66,27.69,27.69,0,0,0-3.51-4.67c-3.18-3.43-6.54-5.56-8.76-5.56a2.82,2.82,0,0,0-2.16.89c-.78.84-1.41,2.53.09,5.72A24.91,24.91,0,0,0,277.09,138.33ZM293,133.74c2.59-2.79,5-4.2,6.08-4.47-.24,1.08-1.44,3.61-4.16,6.54-2.54,2.75-4.87,4.16-6.06,4.46C289.15,139,290.46,136.51,293,133.74Zm-11.68,0c2.72,2.94,3.91,5.47,4.16,6.55-1.14-.27-3.49-1.69-6.08-4.48a21.21,21.21,0,0,1-3.64-5.14,6.35,6.35,0,0,1-.5-1.4C276.42,129.55,278.77,131,281.34,133.74Z" transform="translate(-182.74 -75.9)"/><path d="M290.79,141.27a4.9,4.9,0,0,0,.7-2.53,4.33,4.33,0,1,0-8.63,0,4.9,4.9,0,0,0,.7,2.53Z" transform="translate(-182.74 -75.9)"/><path class="cls-2" d="M264.91,79.53l-17.2,23.9,47.85,34.42,17.19-23.91Zm33.38,49.59a6.25,6.25,0,0,0-8.74,1.22l-32.82-23.6a6.24,6.24,0,0,0-1.62-8.67l7.06-9.82A6.24,6.24,0,0,0,270.91,87l32.82,23.6a6.23,6.23,0,0,0,1.62,8.67Z" transform="translate(-182.74 -75.9)"/><path class="cls-2" d="M279.23,102.74a2.11,2.11,0,0,0-.19.23c-.77,1.07-.33,2.77,1,4.11l3.23-4.5C281.69,101.83,280.07,101.87,279.23,102.74Z" transform="translate(-182.74 -75.9)"/><path class="cls-2" d="M277.22,114.8c1.68.8,3.43.68,4.21-.39h0c.77-1.08.32-2.77-1-4.1Z" transform="translate(-182.74 -75.9)"/><path class="cls-2" d="M287.32,98.83c-4.86-3.49-12-1.91-15.88,3.53s-3.15,12.69,1.7,16.18,12,1.92,15.89-3.53S292.18,102.33,287.32,98.83Zm-4.07,16.89c-1.44,2-4.56,2.31-7.3.84l-.16.23a1.13,1.13,0,0,1-1.82-1.32l.16-.22c-2.27-2.13-3-5.18-1.53-7.19a1.1,1.1,0,0,1,1.54-.21,1.08,1.08,0,0,1,.29,1.52c-.77,1.08-.33,2.78,1,4.11l3.34-4.64c-2.27-2.13-3-5.18-1.53-7.19a4.11,4.11,0,0,1,.7-.74c1.61-1.31,4.25-1.36,6.6-.1l.16-.22a1.11,1.11,0,0,1,1.54-.22,1.09,1.09,0,0,1,.29,1.53l-.16.22c2.26,2.14,3,5.18,1.52,7.19A1.12,1.12,0,0,1,286,108c.77-1.08.32-2.77-1-4.11l-3.34,4.64C284,110.66,284.7,113.71,283.25,115.72Z" transform="translate(-182.74 -75.9)"/><path class="cls-2" d="M298.82,136.05l18.09-10-5-8.23-5.08,7.06a6.31,6.31,0,0,0,.91,3l-5.06,2.81Z" transform="translate(-182.74 -75.9)"/><polygon class="cls-2" points="104.73 58.76 108.2 64.53 110.76 63.1 104.73 58.76"/><path class="cls-2" d="M276,85.15l4.62-2.56A6.51,6.51,0,0,0,289.21,85l10.24,17,5.36,3.86-18.05-30L273.4,83.31Z" transform="translate(-182.74 -75.9)"/><path d="M261.73,82.49l-17.2,23.91,47.85,34.41,17.2-23.91Zm33.38,49.6a6.24,6.24,0,0,0-8.74,1.21l-32.81-23.6a6.24,6.24,0,0,0-1.62-8.67L259,91.21A6.23,6.23,0,0,0,267.73,90l32.82,23.61a6.24,6.24,0,0,0,1.63,8.67Z" transform="translate(-182.74 -75.9)"/><path d="M276.05,105.71a2.15,2.15,0,0,0-.19.22c-.77,1.07-.33,2.77,1,4.11l3.24-4.5C278.51,104.79,276.9,104.84,276.05,105.71Z" transform="translate(-182.74 -75.9)"/><path d="M274.05,117.76c1.68.8,3.43.69,4.2-.39h0c.76-1.08.31-2.76-1-4.1Z" transform="translate(-182.74 -75.9)"/><path d="M284.14,101.8c-4.85-3.5-12-1.92-15.88,3.52S265.11,118,270,121.5s12,1.92,15.88-3.53S289,105.29,284.14,101.8Zm-4.06,16.88c-1.45,2-4.56,2.31-7.3.85l-.16.22a1.1,1.1,0,0,1-1.54.21,1.08,1.08,0,0,1-.29-1.52l.16-.23c-2.26-2.13-3-5.18-1.52-7.19a1.13,1.13,0,0,1,1.82,1.32c-.77,1.07-.32,2.77,1,4.11l3.34-4.65c-2.26-2.13-3-5.18-1.52-7.18a3.8,3.8,0,0,1,.69-.75c1.62-1.31,4.25-1.36,6.61-.1l.16-.22a1.12,1.12,0,0,1,1.82,1.31l-.16.23c2.27,2.13,3,5.17,1.52,7.18a1.09,1.09,0,0,1-1.53.22,1.1,1.1,0,0,1-.29-1.53c.77-1.07.33-2.77-1-4.11l-3.34,4.65C280.82,113.63,281.52,116.67,280.08,118.68Z" transform="translate(-182.74 -75.9)"/><path d="M295.65,139l18.08-10-5-8.23-5.08,7.07a6.3,6.3,0,0,0,.91,3l-5.06,2.81Z" transform="translate(-182.74 -75.9)"/><polygon points="101.56 61.73 105.02 67.49 107.59 66.06 101.56 61.73"/><path d="M272.78,88.12l4.62-2.57A6.52,6.52,0,0,0,286,88l10.23,17,5.36,3.86-18.05-30-13.36,7.41Z" transform="translate(-182.74 -75.9)"/><g class="cls-3"><path class="cls-4" d="M300.7,190.22l-88.76-3.46a3.91,3.91,0,0,1-3.55-2.84l-20-65.8a4.31,4.31,0,0,1,.6-3.74,3.79,3.79,0,0,1,3.24-1.62l127.86,5a4.11,4.11,0,0,1-.28,8.21l-122.33-4.76L215,178.66l83.77,3.26L342.11,107a3.82,3.82,0,0,1,3.45-2l45.88,1.78a4.11,4.11,0,0,1-.29,8.21l-43.61-1.7-43.38,74.91A3.86,3.86,0,0,1,300.7,190.22Z" transform="translate(-182.74 -75.9)"/><path class="cls-4" d="M380.13,138.74l-33.63-1.3a4,4,0,0,1-3.74-4.26,4,4,0,0,1,4-4l33.62,1.31a4.11,4.11,0,0,1-.28,8.2Z" transform="translate(-182.74 -75.9)"/><path class="cls-4" d="M367.59,158.44,334,157.14a4.11,4.11,0,0,1,.29-8.21l33.63,1.31a4,4,0,0,1,3.73,4.25A4,4,0,0,1,367.59,158.44Z" transform="translate(-182.74 -75.9)"/><path class="cls-4" d="M228.76,221c-7.74-.3-13.81-7.21-13.53-15.4s6.82-14.61,14.57-14.31,13.81,7.21,13.53,15.4S236.51,221.26,228.76,221Zm.75-21.5a6.45,6.45,0,0,0-6.52,6.4,6.53,6.53,0,0,0,6.06,6.9,6.66,6.66,0,0,0,.46-13.3Z" transform="translate(-182.74 -75.9)"/><path class="cls-4" d="M282.73,223.06c-7.75-.3-13.82-7.21-13.53-15.4s6.81-14.61,14.56-14.31,13.81,7.21,13.53,15.4S290.47,223.36,282.73,223.06Zm.74-21.5a6.66,6.66,0,1,0,6.06,6.89A6.51,6.51,0,0,0,283.47,201.56Z" transform="translate(-182.74 -75.9)"/></g><path class="cls-4" d="M303.58,185.79H214.75a3.9,3.9,0,0,1-3.65-2.71l-22.3-65a4.31,4.31,0,0,1,.47-3.76,3.82,3.82,0,0,1,3.18-1.75h128a4.11,4.11,0,0,1,0,8.21H198l19.48,56.77h83.84L342.06,101a3.85,3.85,0,0,1,3.38-2.09h45.91a4.12,4.12,0,0,1,0,8.22H347.71L307,183.7A3.85,3.85,0,0,1,303.58,185.79Z" transform="translate(-182.74 -75.9)"/><path class="cls-4" d="M381.16,131.26H347.51a4.11,4.11,0,0,1,0-8.21h33.65a4.11,4.11,0,0,1,0,8.21Z" transform="translate(-182.74 -75.9)"/><path class="cls-4" d="M369.31,151.44H335.66a4.11,4.11,0,0,1,0-8.21h33.65a4.11,4.11,0,0,1,0,8.21Z" transform="translate(-182.74 -75.9)"/><path class="cls-4" d="M232.75,219.31c-7.75,0-14.05-6.67-14.05-14.86s6.3-14.87,14.05-14.87,14.06,6.67,14.06,14.87S240.5,219.31,232.75,219.31Zm0-21.52a6.67,6.67,0,1,0,6.29,6.66A6.49,6.49,0,0,0,232.75,197.79Z" transform="translate(-182.74 -75.9)"/><path class="cls-4" d="M286.75,219.31c-7.75,0-14.06-6.67-14.06-14.86s6.31-14.87,14.06-14.87,14.06,6.67,14.06,14.87S294.5,219.31,286.75,219.31Zm0-21.52a6.67,6.67,0,1,0,6.29,6.66A6.49,6.49,0,0,0,286.75,197.79Z" transform="translate(-182.74 -75.9)"/></g></g></svg>